<svg xmlns="http://www.w3.org/2000/svg" xmlns:xlink="http://www.w3.org/1999/xlink" preserveAspectRatio="xMidYMid" width="72" height="60" viewBox="0 0 72 60">
  <defs>
    <style>
      .cls-1 {
        fill: #2c5272;
        fill-rule: evenodd;
      }
    </style>
  </defs>
  <path d="M61.000,29.000 C61.000,30.105 60.105,31.000 59.000,31.000 C57.895,31.000 57.000,30.105 57.000,29.000 C57.000,27.895 57.895,27.000 59.000,27.000 C60.105,27.000 61.000,27.895 61.000,29.000 ZM53.000,29.000 C53.000,30.105 52.105,31.000 51.000,31.000 C49.895,31.000 49.000,30.105 49.000,29.000 C49.000,27.895 49.895,27.000 51.000,27.000 C52.105,27.000 53.000,27.895 53.000,29.000 ZM45.000,29.000 C45.000,30.105 44.105,31.000 43.000,31.000 C41.895,31.000 41.000,30.105 41.000,29.000 C41.000,27.895 41.895,27.000 43.000,27.000 C44.105,27.000 45.000,27.895 45.000,29.000 ZM37.000,29.000 C37.000,30.105 36.105,31.000 35.000,31.000 C33.895,31.000 33.000,30.105 33.000,29.000 C33.000,27.895 33.895,27.000 35.000,27.000 C36.105,27.000 37.000,27.895 37.000,29.000 ZM70.738,30.896 L34.540,57.921 C33.912,58.486 32.944,58.435 32.379,57.808 C31.813,57.179 31.864,56.212 32.492,55.647 L65.928,30.683 C65.371,30.328 65.000,29.709 65.000,29.000 C65.000,28.585 65.127,28.199 65.344,27.879 L32.492,3.352 C31.864,2.787 31.813,1.820 32.379,1.192 C32.944,0.563 33.912,0.513 34.540,1.078 L70.738,28.104 C71.143,28.469 71.281,28.999 71.194,29.500 C71.281,30.000 71.143,30.530 70.738,30.896 ZM27.000,31.000 C25.895,31.000 25.000,30.105 25.000,29.000 C25.000,27.895 25.895,27.000 27.000,27.000 C28.105,27.000 29.000,27.895 29.000,29.000 C29.000,30.105 28.105,31.000 27.000,31.000 ZM19.000,31.000 C17.895,31.000 17.000,30.105 17.000,29.000 C17.000,27.895 17.895,27.000 19.000,27.000 C20.105,27.000 21.000,27.895 21.000,29.000 C21.000,30.105 20.105,31.000 19.000,31.000 ZM11.000,31.000 C9.895,31.000 9.000,30.105 9.000,29.000 C9.000,27.895 9.895,27.000 11.000,27.000 C12.105,27.000 13.000,27.895 13.000,29.000 C13.000,30.105 12.105,31.000 11.000,31.000 ZM3.000,31.000 C1.895,31.000 1.000,30.105 1.000,29.000 C1.000,27.895 1.895,27.000 3.000,27.000 C4.105,27.000 5.000,27.895 5.000,29.000 C5.000,30.105 4.105,31.000 3.000,31.000 Z" class="cls-1"/>
</svg>