<?xml version="1.0" encoding="UTF-8"?>
<!-- Generator: Adobe Illustrator 22.1.0, SVG Export Plug-In . SVG Version: 6.00 Build 0)  -->
<svg version="1.1" id="Слой_1" xmlns="http://www.w3.org/2000/svg" xmlns:xlink="http://www.w3.org/1999/xlink" x="0px" y="0px" viewBox="0 0 82 132" style="enable-background:new 0 0 82 132;" xml:space="preserve">
<style type="text/css">
	.st0{fill:#BDCCD4;}
	.st1{fill:#61ABDD;}
	.st2{fill:#3E70C9;}
	.st3{fill:#71AAE2;}
	.st4{fill:#B9DDF5;}
	.st5{fill:#74ABE6;}
	.st6{fill:#C1DEF6;}
</style>
<g>
	<path class="st0" d="M106,68c0.1,5.8,3.8,8.2,8.1,8.2c3.1,0,4.9-0.5,6.6-1.2l0.7,3.1c-1.5,0.7-4.1,1.5-7.9,1.5   c-7.3,0-11.7-4.8-11.7-12s4.2-12.8,11.1-12.8c7.7,0,9.8,6.8,9.8,11.2c0,0.9-0.1,1.6-0.1,2H106z M118.6,65c0-2.7-1.1-7-6-7   c-4.4,0-6.3,4-6.6,7H118.6z"/>
	<path class="st0" d="M134.5,48.6v6.8h6.2v3.3h-6.2v12.8c0,2.9,0.8,4.6,3.2,4.6c1.1,0,2-0.1,2.5-0.3l0.2,3.2   c-0.8,0.3-2.2,0.6-3.8,0.6c-2,0-3.6-0.6-4.7-1.8c-1.2-1.3-1.7-3.4-1.7-6.2V58.7h-3.7v-3.3h3.7v-5.7L134.5,48.6z"/>
	<path class="st0" d="M146.8,44.3h4.3v14.8h0.1c0.7-1.2,1.8-2.3,3.1-3c1.3-0.7,2.8-1.2,4.4-1.2c3.2,0,8.3,2,8.3,10.1v14.1h-4.3V65.5   c0-3.8-1.4-7.1-5.5-7.1c-2.8,0-5,2-5.8,4.3c-0.2,0.6-0.3,1.2-0.3,2.1v14.3h-4.3V44.3z"/>
	<path class="st0" d="M177.6,68c0.1,5.8,3.8,8.2,8.1,8.2c3.1,0,4.9-0.5,6.6-1.2l0.7,3.1c-1.5,0.7-4.1,1.5-7.9,1.5   c-7.3,0-11.7-4.8-11.7-12s4.2-12.8,11.1-12.8c7.7,0,9.8,6.8,9.8,11.2c0,0.9-0.1,1.6-0.1,2H177.6z M190.3,65c0-2.7-1.1-7-6-7   c-4.4,0-6.3,4-6.6,7H190.3z"/>
	<path class="st0" d="M201,62.8c0-2.8,0-5.2-0.2-7.4h3.8l0.1,4.7h0.2c1.1-3.2,3.7-5.2,6.6-5.2c0.5,0,0.8,0,1.2,0.1v4.1   c-0.4-0.1-0.9-0.1-1.5-0.1c-3,0-5.2,2.3-5.8,5.5c-0.1,0.6-0.2,1.3-0.2,2v12.6H201V62.8z"/>
	<path class="st0" d="M220.1,68c0.1,5.8,3.8,8.2,8.1,8.2c3.1,0,4.9-0.5,6.6-1.2l0.7,3.1c-1.5,0.7-4.1,1.5-7.9,1.5   c-7.3,0-11.7-4.8-11.7-12s4.2-12.8,11.1-12.8c7.7,0,9.8,6.8,9.8,11.2c0,0.9-0.1,1.6-0.1,2H220.1z M232.8,65c0-2.7-1.1-7-6-7   c-4.4,0-6.3,4-6.6,7H232.8z"/>
	<path class="st0" d="M263.4,72.7c0,2.5,0,4.6,0.2,6.5h-3.8l-0.2-3.9h-0.1c-1.1,1.9-3.6,4.4-7.8,4.4c-3.7,0-8.2-2.1-8.2-10.4V55.4   h4.3v13.1c0,4.5,1.4,7.5,5.3,7.5c2.9,0,4.9-2,5.7-3.9c0.2-0.6,0.4-1.4,0.4-2.2V55.4h4.3V72.7z"/>
	<path class="st0" d="M271.7,61.8c0-2.4,0-4.5-0.2-6.4h3.8l0.2,3.8h0.1c1.3-2.3,3.5-4.4,7.4-4.4c3.2,0,5.7,2,6.7,4.8h0.1   c0.7-1.3,1.7-2.4,2.6-3.1c1.4-1.1,3-1.7,5.2-1.7c3.1,0,7.8,2.1,7.8,10.3v14h-4.2V65.7c0-4.6-1.7-7.3-5.1-7.3   c-2.4,0-4.4,1.8-5.1,3.9c-0.2,0.6-0.3,1.4-0.3,2.2v14.6h-4.2V64.9c0-3.8-1.7-6.5-4.9-6.5c-2.7,0-4.7,2.2-5.3,4.3   c-0.2,0.6-0.3,1.4-0.3,2.1v14.3h-4.2V61.8z"/>
</g>
<path class="st1" d="M41,1v90.2L81,67.5L41,1z"/>
<polygon class="st2" points="81,67.5 41,91.2 41,49.3 "/>
<polygon class="st3" points="41,49.3 41,91.2 0.9,67.5 "/>
<polygon class="st4" points="41,1 41,49.3 0.9,67.5 "/>
<path class="st5" d="M41,98.8v32.8L81,75.1L41,98.8z"/>
<path class="st6" d="M0.9,75.1L41,131.5V98.8L0.9,75.1z"/>
</svg>